<svg xmlns="http://www.w3.org/2000/svg" viewBox="0 0 512 512"><rect width="512" height="512" rx="110" fill="#071018"/><circle cx="256" cy="256" r="190" fill="#102433"/><path d="M256 82C190 167 158 218 158 278c0 63 45 110 98 110s98-47 98-110c0-60-32-111-98-196z" fill="#2f8cff"/><path d="M130 256c-8-76 32-124 118-145-18 78-54 128-118 145zM382 256c8-76-32-124-118-145 18 78 54 128 118 145z" fill="#14b86f"/><path d="M198 268c34-34 82-34 116 0" fill="none" stroke="#fff" stroke-width="24" stroke-linecap="round"/><path d="M226 306c18-18 42-18 60 0" fill="none" stroke="#fff" stroke-width="22" stroke-linecap="round"/><circle cx="256" cy="338" r="14" fill="#fff"/></svg>